<?xml version="1.0" encoding="utf-8"?>
<!-- Generator: Adobe Illustrator 27.5.0, SVG Export Plug-In . SVG Version: 6.00 Build 0)  -->
<svg version="1.1" id="Capa_1" xmlns="http://www.w3.org/2000/svg" xmlns:xlink="http://www.w3.org/1999/xlink" x="0px" y="0px"
	 viewBox="0 0 1807 2491" style="enable-background:new 0 0 1807 2491;" xml:space="preserve">
<g>
	<g>
		<path style="fill:#085729;" d="M1228.421,1320.969c-43.827-243.607-187.682-405.126-216.518-654.5
			c-8.146-70.445-22.609-395.311-25.294-528.265c12.269-4.19,17.308-28.709-1.988-34.589c-2.659-10.764-8.843-14.679-21.257-14.941
			h-119.84c-12.414,0.262-18.598,4.176-21.257,14.941c-19.295,5.881-14.258,30.399-1.988,34.589
			c-2.685,132.954-17.149,457.82-25.294,528.265c-28.836,249.375-172.691,410.893-216.518,654.5
			c-23.527,130.771-8.926,1016.432,0.24,1029.828c17.129,25.033,168.897,47.748,324.728,50.999v0.001
			c0.003,0,0.006-0.001,0.009-0.001c0.004,0,0.006,0.001,0.009,0.001v-0.001c155.831-3.251,307.598-25.966,324.728-50.999
			C1237.347,2337.401,1251.947,1451.74,1228.421,1320.969z"/>
	</g>
	<g>
		<path style="fill:#064E24;" d="M1228.421,1320.969c-43.827-243.607-187.682-405.126-216.517-654.5
			c-8.146-70.445-22.609-395.311-25.294-528.265c12.269-4.19,17.308-28.709-1.988-34.589c-2.659-10.764-8.843-14.679-21.257-14.941
			h-6.742c3.589,150.196,17.074,462.801,24.831,533.22c28.836,261.773,120.172,431.321,163.999,687.04
			c22.226,129.682,10.425,966.561,1.323,1070.573c44.062-8.358,74.306-18.334,81.406-28.709
			C1237.347,2337.401,1251.947,1451.74,1228.421,1320.969z"/>
	</g>
	<g>
		<path style="fill:#0C6330;" d="M840.509,2349.21c0.321-13.873-9.39-897.47-0.095-1028.241
			c17.316-243.607,74.149-405.126,85.542-654.5c2.832-61.99,9.422-380.587,9.422-444.345c0-63.758-91.6-84.807-91.6,3.296
			c0,88.103-11.762,379.058-16.817,441.048c-20.334,249.375-121.777,410.893-152.683,654.5
			c-16.591,130.771-1.89,997.837-0.522,1012.648C678.29,2382.738,839.669,2385.517,840.509,2349.21z"/>
	</g>
	<g>
		<path style="fill:#F6E5CD;" d="M1232.426,2293.771c7.401-176.442,14.26-712.571,1.95-912.557c0,0-77.98,28.239-330.932,28.239
			s-330.932-28.239-330.932-28.239c-12.31,199.986-5.45,736.115,1.951,912.557c0,0,51.496,39.847,328.982,39.847
			C1180.93,2333.618,1232.426,2293.771,1232.426,2293.771z"/>
	</g>
	<g>
		<path style="fill:#FBEFE0;" d="M837.654,1408.77c-72.866-1.56-127.759-5.612-168.123-10.145
			c-7.836,233.067,1.438,825.365,3.804,921.795c39.339,5.748,93.394,10.648,167.095,12.454
			C839.644,2227.84,833.864,1648.504,837.654,1408.77z"/>
	</g>
	<path style="fill:#013E1A;" d="M903.453,101.023c25.637-0.427,50.185-6.407,65.353-11.922c-1.671-0.238-3.468-0.385-5.443-0.427
		h-119.84c-1.974,0.042-3.771,0.189-5.443,0.427c15.169,5.515,39.716,11.495,65.353,11.922v0.001c0.003,0,0.006,0,0.009,0
		C903.447,101.024,903.449,101.024,903.453,101.023L903.453,101.023z"/>
	<g>
		<path style="fill:#306132;" d="M984.189,103.454c0,0-33.021,14.098-80.746,14.098c-47.725,0-80.745-14.098-80.745-14.098
			c-20.242,5.74-14.591,31.602-1.677,35.035c27.235,7.24,41.326,12.9,82.422,12.9c41.097,0,55.187-5.66,82.423-12.9
			C998.78,135.056,1004.431,109.194,984.189,103.454z"/>
	</g>
	<g>
		<path style="fill:#F6E5CD;" d="M903.443,479.511c47.555,0,66.012-6.101,95.656-14.205
			c-5.744-116.796-10.98-252.312-12.491-327.102c-0.251,0.086-0.486,0.217-0.743,0.285c-27.235,7.24-41.326,12.9-82.423,12.9
			c-41.097,0-55.188-5.66-82.422-12.9c-0.257-0.068-0.491-0.2-0.743-0.285c-1.511,74.79-6.748,210.305-12.492,327.102
			C837.431,473.41,855.889,479.511,903.443,479.511z"/>
	</g>
	<g>
		<path style="fill:#DECBB1;" d="M971.682,472.582c8.889-2.105,17.535-4.576,27.418-7.277c-0.172-3.505-0.344-7.029-0.515-10.566
			c-0.044-0.922-0.089-1.851-0.134-2.775c-0.122-2.53-0.244-5.062-0.366-7.606c-0.067-1.427-0.135-2.859-0.204-4.29
			c-0.1-2.12-0.201-4.241-0.301-6.369c-0.07-1.483-0.139-2.969-0.209-4.456c-0.093-1.988-0.186-3.978-0.279-5.971
			c-0.076-1.643-0.152-3.286-0.229-4.932c-0.095-2.079-0.192-4.16-0.286-6.244c-0.064-1.405-0.129-2.809-0.193-4.216
			c-0.105-2.295-0.208-4.592-0.312-6.89c-0.06-1.318-0.12-2.634-0.178-3.952c-0.101-2.238-0.2-4.477-0.3-6.717
			c-0.065-1.446-0.129-2.89-0.193-4.336c-0.123-2.777-0.245-5.554-0.366-8.331c-0.064-1.467-0.128-2.931-0.192-4.397
			c-0.121-2.785-0.242-5.57-0.361-8.352c-0.061-1.433-0.122-2.864-0.184-4.296c-0.097-2.264-0.194-4.526-0.29-6.787
			c-0.056-1.339-0.112-2.674-0.169-4.012c-0.091-2.161-0.183-4.32-0.272-6.476c-0.071-1.683-0.141-3.362-0.21-5.04
			c-0.076-1.846-0.153-3.689-0.228-5.53c-0.07-1.716-0.141-3.428-0.211-5.14c-0.075-1.825-0.149-3.646-0.223-5.466
			c-0.067-1.666-0.135-3.331-0.202-4.992c-0.083-2.053-0.164-4.098-0.246-6.142c-0.057-1.437-0.115-2.875-0.171-4.308
			c-0.078-1.952-0.154-3.893-0.23-5.836c-0.064-1.631-0.128-3.265-0.192-4.89c-0.1-2.553-0.197-5.089-0.295-7.623
			c-0.049-1.268-0.098-2.536-0.146-3.799c-0.111-2.896-0.221-5.783-0.329-8.651c-0.055-1.447-0.107-2.878-0.162-4.318
			c-0.071-1.906-0.142-3.814-0.212-5.706c-0.058-1.568-0.115-3.122-0.172-4.679c-0.064-1.745-0.128-3.489-0.19-5.221
			c-0.06-1.639-0.118-3.267-0.176-4.894c-0.06-1.659-0.119-3.314-0.177-4.96c-0.054-1.529-0.108-3.05-0.162-4.567
			c-0.063-1.791-0.125-3.569-0.186-5.343c-0.049-1.392-0.096-2.782-0.144-4.163c-0.063-1.86-0.126-3.701-0.188-5.54
			c-0.044-1.318-0.09-2.64-0.133-3.947c-0.065-1.92-0.126-3.815-0.189-5.71c-0.037-1.154-0.077-2.322-0.114-3.467
			c-0.197-6.051-0.385-11.966-0.562-17.732c-0.033-1.085-0.064-2.145-0.097-3.22c-0.052-1.73-0.105-3.462-0.155-5.164
			c-0.038-1.298-0.076-2.573-0.112-3.854c-0.046-1.562-0.091-3.119-0.135-4.655c-0.031-1.106-0.062-2.197-0.092-3.289
			c-0.046-1.666-0.093-3.318-0.137-4.952c-0.029-1.068-0.057-2.127-0.085-3.18c-0.042-1.573-0.083-3.124-0.122-4.664
			c-0.026-1.018-0.053-2.036-0.078-3.039c-0.04-1.598-0.079-3.166-0.117-4.725c-0.022-0.919-0.045-1.846-0.067-2.751
			c-0.039-1.65-0.076-3.26-0.112-4.863c-0.018-0.763-0.036-1.544-0.053-2.297c-0.051-2.319-0.1-4.596-0.144-6.811
			c-0.251,0.086-0.486,0.217-0.743,0.285c-10.385,2.76-18.863,5.288-27.651,7.363C961.203,242.204,966.464,371.108,971.682,472.582z
			"/>
	</g>
	<g>
		<path style="fill:#FBEFE0;" d="M935.378,222.124c0-63.758-91.6-84.807-91.6,3.296c0,46.815-3.321,150.904-7.193,247.484
			c17.373,4.023,35.977,6.606,66.858,6.606c10.476,0,19.481-0.312,27.563-0.86C933.318,373.07,935.378,257.771,935.378,222.124z"/>
	</g>
	<g>
		<path style="fill:#DECBB1;" d="M1241.136,1727.664c-0.006-10.947-0.022-21.833-0.051-32.638c-0.001-0.16-0.001-0.319-0.002-0.479
			c-0.029-10.815-0.07-21.547-0.122-32.179c-0.001-0.187-0.002-0.375-0.003-0.562c-0.054-10.642-0.12-21.182-0.199-31.598
			c-0.001-0.128-0.002-0.257-0.003-0.384c-0.08-10.435-0.172-20.746-0.278-30.913c-0.002-0.132-0.003-0.264-0.005-0.396
			c-0.105-10.108-0.224-20.07-0.357-29.873c-0.003-0.219-0.006-0.439-0.009-0.657c-0.134-9.8-0.282-19.437-0.444-28.891
			c-0.002-0.135-0.005-0.271-0.007-0.405c-0.163-9.472-0.341-18.758-0.534-27.841c-0.003-0.146-0.006-0.293-0.009-0.44
			c-0.193-9.052-0.401-17.899-0.624-26.524c-0.004-0.16-0.008-0.321-0.012-0.481c-0.224-8.628-0.465-17.029-0.72-25.186
			c-0.004-0.126-0.008-0.252-0.012-0.378c-0.256-8.142-0.529-16.037-0.818-23.668c-0.005-0.14-0.01-0.281-0.015-0.421
			c-0.289-7.599-0.595-14.931-0.918-21.981c-0.007-0.15-0.013-0.302-0.021-0.453c-0.323-7.019-0.662-13.752-1.02-20.185
			c-0.008-0.155-0.016-0.312-0.025-0.466c-0.181-3.227-0.365-6.382-0.554-9.452c0,0-22.3,8.069-81.684,15.581
			c10.289,221.331,4.176,731.859-2.766,921.049c65.732-11.129,82.492-24.067,82.5-24.073c0.003-0.06,0.005-0.12,0.008-0.18
			c0.109-2.596,0.218-5.275,0.326-8.025c0.013-0.319,0.025-0.647,0.037-0.968c0.102-2.606,0.204-5.272,0.306-8.01
			c0.006-0.192,0.014-0.38,0.021-0.573c0.108-2.941,0.218-5.961,0.326-9.049c0.01-0.288,0.02-0.581,0.03-0.87
			c0.104-2.968,0.207-5.997,0.31-9.093c0.006-0.178,0.012-0.352,0.018-0.53c0.108-3.261,0.216-6.596,0.323-9.995
			c0.01-0.301,0.019-0.607,0.029-0.909c0.101-3.213,0.201-6.484,0.302-9.816c0.007-0.25,0.015-0.494,0.022-0.744
			c0.107-3.547,0.213-7.159,0.317-10.833c0.008-0.26,0.015-0.522,0.022-0.782c0.211-7.392,0.42-15.037,0.626-22.917
			c0.012-0.47,0.024-0.946,0.036-1.417c0.204-7.831,0.404-15.884,0.602-24.155c0.009-0.383,0.018-0.769,0.027-1.152
			c0.2-8.368,0.395-16.945,0.587-25.722c0.008-0.394,0.017-0.79,0.026-1.184c0.194-8.91,0.384-18.014,0.569-27.304
			c0.002-0.118,0.005-0.237,0.007-0.355c0.187-9.361,0.369-18.906,0.546-28.613c0.008-0.4,0.015-0.802,0.022-1.202
			c0.174-9.578,0.343-19.311,0.507-29.185c0.006-0.37,0.012-0.741,0.018-1.111c0.164-9.959,0.323-20.055,0.475-30.274
			c0.004-0.236,0.007-0.472,0.011-0.709c0.154-10.325,0.302-20.772,0.443-31.323c0.003-0.21,0.006-0.421,0.008-0.631
			c0.14-10.445,0.272-20.992,0.398-31.618c0.006-0.505,0.012-1.011,0.017-1.518c0.125-10.645,0.243-21.367,0.353-32.152
			c0.002-0.138,0.004-0.276,0.005-0.414c0.111-10.86,0.213-21.782,0.307-32.745c0.004-0.419,0.007-0.838,0.011-1.258
			c0.093-10.919,0.178-21.878,0.254-32.859c0.002-0.2,0.003-0.4,0.005-0.6c0.076-10.983,0.142-21.987,0.2-32.993
			c0.002-0.446,0.005-0.891,0.007-1.336c0.057-10.974,0.104-21.948,0.142-32.903c0.001-0.231,0.002-0.463,0.002-0.694
			c0.038-11.098,0.066-22.175,0.083-33.213c0-0.181,0-0.363,0.001-0.544c0.016-11.038,0.022-22.035,0.017-32.972
			C1241.136,1728.101,1241.136,1727.883,1241.136,1727.664z"/>
	</g>
	<g>
		<path style="fill:#085729;" d="M958.215,145.852c8.789-2.075,17.266-4.603,27.651-7.363c0.257-0.068,0.491-0.2,0.743-0.285l0,0
			c12.269-4.19,17.308-28.709-1.988-34.589l0,0c-0.153-0.047-0.275-0.117-0.431-0.16c0,0-10.022,4.271-26.978,8.112
			C957.507,122.412,957.844,133.886,958.215,145.852z"/>
	</g>
	<g>
		<path style="fill:#F6E5CD;" d="M1048.192,828.813c-16.522-50.782-29.561-104.154-36.289-162.344
			c-0.379-3.275-0.771-7.103-1.175-11.433c0,0-7.878,2.948-23.338,6.114c-20.114-32.129-50.274-52.604-83.947-52.604
			c-33.672,0-63.832,20.475-83.945,52.604c-15.46-3.165-23.339-6.114-23.339-6.114c-0.404,4.33-0.797,8.158-1.175,11.433
			c-6.729,58.19-19.768,111.562-36.289,162.344c0,0,20.804,16.631,65.217,27.345c19.983,28.29,48.235,45.993,79.53,45.993
			c31.297,0,59.548-17.702,79.532-45.993C1027.387,845.444,1048.192,828.813,1048.192,828.813z"/>
		<path style="fill:#FBEFE0;" d="M927.757,612.199c-7.822-2.386-15.96-3.653-24.315-3.653c-29.119,0-55.597,15.334-75.238,40.253
			c-0.447,7.051-0.865,13.016-1.244,17.669c-5.346,65.573-16.331,125.04-30.137,181.553c7.799,2.843,16.78,5.65,27.088,8.136
			c19.486,27.588,46.845,45.058,77.213,45.911c11.391-72.671,20.866-148.81,24.831-235.6
			C926.457,655.49,927.077,636.435,927.757,612.199z"/>
		<path style="fill:#DECBB1;" d="M1011.451,662.341c-0.085-0.812-0.172-1.651-0.258-2.514c-0.038-0.38-0.076-0.754-0.115-1.144
			c-0.116-1.175-0.232-2.382-0.35-3.644c0-0.001,0-0.002,0-0.002c0,0-7.878,2.948-23.338,6.114
			c-0.415-0.662-0.859-1.289-1.282-1.941c9.001,65.84,21.836,126.077,36.633,183.753c17.188-7.556,25.451-14.149,25.452-14.149
			c-1.992-6.122-3.929-12.286-5.813-18.488c-0.15-0.493-0.298-0.987-0.447-1.48c-1.744-5.773-3.44-11.582-5.082-17.431
			c-0.296-1.053-0.583-2.112-0.876-3.167c-1.49-5.383-2.946-10.794-4.343-16.247c-0.425-1.654-0.828-3.325-1.244-4.985
			c-1.239-4.962-2.46-9.938-3.617-14.962c-0.534-2.314-1.03-4.657-1.546-6.985c-0.992-4.487-1.986-8.973-2.908-13.513
			c-0.63-3.091-1.2-6.227-1.795-9.344c-0.745-3.904-1.512-7.792-2.202-11.738c-0.731-4.169-1.378-8.402-2.045-12.62
			c-0.479-3.026-1-6.018-1.444-9.069c-1.074-7.363-2.058-14.795-2.927-22.314c-0.114-0.989-0.231-2.044-0.347-3.132
			C1011.521,663.011,1011.486,662.674,1011.451,662.341z"/>
		<g>
			<g>
				<path style="fill:#F6A31A;" d="M903.443,902.15c-60.411,0-109.559-65.855-109.559-146.802
					c0-80.947,49.148-146.802,109.559-146.802c60.412,0,109.56,65.856,109.56,146.802
					C1013.003,836.295,963.855,902.15,903.443,902.15z M903.443,614.625c-57.06,0-103.481,63.129-103.481,140.724
					c0,77.595,46.421,140.724,103.481,140.724c57.06,0,103.482-63.129,103.482-140.724
					C1006.925,677.754,960.503,614.625,903.443,614.625z"/>
			</g>
			<g>
				<path style="fill:#F6A31A;" d="M903.443,881.795c-52.076,0-94.445-56.725-94.445-126.447
					c0-69.723,42.369-126.447,94.445-126.447c52.078,0,94.446,56.724,94.446,126.447
					C997.889,825.07,955.521,881.795,903.443,881.795z M903.443,634.74c-48.858,0-88.607,54.105-88.607,120.609
					c0,66.503,39.749,120.609,88.607,120.609c48.859,0,88.609-54.105,88.609-120.609C992.051,688.845,952.302,634.74,903.443,634.74
					z"/>
			</g>
		</g>
		<path style="fill:#C27816;" d="M988.342,675.032c11.697,22.794,18.583,50.475,18.583,80.317c0,5.849-0.295,11.602-0.807,17.266
			c1.244,5.778,2.508,11.528,3.8,17.24c2-11.074,3.086-22.62,3.086-34.505c0-36.775-10.167-70.407-26.903-96.193
			C986.827,664.477,987.566,669.783,988.342,675.032z"/>
		<g>
			<path style="fill:#F6A31A;" d="M903.443,881.795c-52.076,0-94.445-56.725-94.445-126.447c0-69.723,42.369-126.447,94.445-126.447
				c52.078,0,94.446,56.724,94.446,126.447C997.889,825.07,955.521,881.795,903.443,881.795z M903.443,634.74
				c-48.858,0-88.607,54.105-88.607,120.609c0,66.503,39.749,120.609,88.607,120.609c48.859,0,88.609-54.105,88.609-120.609
				C992.051,688.845,952.302,634.74,903.443,634.74z"/>
		</g>
		<g>
			<path style="fill:#FCC55C;" d="M806.616,804.941c-0.845,4.03-1.69,8.061-2.568,12.056c17.114,49.339,54.082,83.868,97.077,85.075
				c0.315-2.012,0.627-4.03,0.939-6.047C858.434,895.243,821.243,857.578,806.616,804.941z"/>
			<path style="fill:#FCC55C;" d="M903.443,614.625c8.311,0,16.385,1.376,24.134,3.904c0.06-2.056,0.119-4.155,0.179-6.294
				c-7.826-2.386-15.956-3.689-24.313-3.689c-29.116,0-55.594,15.328-75.237,40.239c-0.26,4.101-0.511,7.849-0.749,11.164
				C846.376,632.103,873.432,614.625,903.443,614.625z"/>
		</g>
		<g>
			<path style="fill:#FCC55C;" d="M903.443,875.957c-47.41,0-86.238-50.948-88.497-114.733c-1.206,7.054-2.465,14.05-3.782,20.985
				c9.226,56.858,47.087,99.586,92.279,99.586c0.268,0,0.531-0.025,0.798-0.028c0.292-1.951,0.579-3.911,0.869-5.868
				C904.553,875.914,904.002,875.957,903.443,875.957z"/>
			<path style="fill:#FCC55C;" d="M825.301,684.416c-0.668,6.766-1.402,13.46-2.184,20.103
				c14.118-41.168,44.805-69.779,80.326-69.779c8.142,0,16.021,1.533,23.516,4.345c0.063-1.988,0.127-4.027,0.192-6.145
				c-7.579-2.633-15.523-4.038-23.708-4.038C870.988,628.902,842.309,650.938,825.301,684.416z"/>
		</g>
		<ellipse style="fill:#F28F1B;" cx="903.443" cy="755.348" rx="67.563" ry="91.186"/>
		<path style="fill:#F9AF13;" d="M903.443,664.163c-37.314,0-67.563,40.825-67.563,91.185c0,50.36,30.249,91.186,67.563,91.186
			c1.984,0,3.943-0.14,5.883-0.366c7.504-55.136,13.475-113.138,16.483-176.867C918.807,665.985,911.285,664.163,903.443,664.163z"
			/>
	</g>
	<g>
		<path style="fill:#0B6E35;" d="M742.974,1357.894c43.075,5.622,59.01-170.887,71.861-239.85
			c8.725-46.82,38.221-187.451,16.389-191.915c-31.418-6.422-86.43,200.65-97.297,244.58
			C721.757,1219.91,699.899,1352.273,742.974,1357.894z"/>
	</g>
	<g>
		<path style="fill:#FFFAF0;" d="M727.164,2137.196c1.695,35.365,4.907,73.91,29.158,99.707c4.009,4.264,9.619,8.338,15.244,6.718
			c7.057-2.033,8.78-11.079,9.193-18.412c13.295-236.434,3.382-473.612-14.068-709.775c-1.755-23.743-5.051-50.354-23.798-65.027
			l0,0c-20.878-16.342-23.486,83.291-23.695,93.255c-1.014,48.167-1.624,96.344-1.829,144.522
			c-0.411,96.356,0.796,192.719,3.619,289.034C722.55,2030.559,724.548,2083.895,727.164,2137.196z"/>
	</g>
</g>
</svg>
