<?xml version="1.0" encoding="utf-8"?>
<!-- Generator: Adobe Illustrator 27.5.0, SVG Export Plug-In . SVG Version: 6.00 Build 0)  -->
<svg version="1.1" id="Layer_1" xmlns="http://www.w3.org/2000/svg" xmlns:xlink="http://www.w3.org/1999/xlink" x="0px" y="0px"
	 viewBox="0 0 99.833 358.719" style="enable-background:new 0 0 99.833 358.719;" xml:space="preserve">
<g>
	<g>
		<path style="fill:#4B1E0A;" d="M89.746,177.622c-4.488-24.927-16.73-47.35-22.614-71.853c-5.981-24.91-4.197-50.905-4.733-76.354
			c0.005,0.001,0.01,0.003,0.015,0.004c0.341,0.121,0.674-0.051,0.899-0.304c1.704-1.921,1.301-3.837-1.262-4.449
			c-0.166-0.04-0.345-0.062-0.518-0.091c0.28-4.039,1.231-8.652,0.495-12.578c-0.404-2.156-5.358-3.545-6.991-3.801
			c-3.249-0.511-14.869-1.705-15.981,3.179c-0.051,0.009-0.103,0.054-0.105,0.114c-0.16,4.255-0.063,8.99,0.624,13.229
			c-1.504,0.209-2.973,0.654-3.48,1.688c-0.657,1.34,0.277,1.86,1.359,2.032c-0.604,25.761,1.307,52.103-4.752,77.331
			c-5.884,24.503-18.126,46.926-22.614,71.853c-4.444,24.688-2.411,50.52-1.392,75.418c1.109,27.108,1.344,54.352,3.163,81.419
			c0.007,0.1,0.042,0.163,0.087,0.21c0.314,4.989,1.875,9.345,7.278,12.403c7.856,4.447,18.881,4.113,27.562,3.791
			c10.323-0.383,20.909-0.72,31.089-2.621c3.659-0.684,6.916-2.549,8.979-5.672c1.607-2.432,1.512-5.737,1.173-8.958
			c1.769-26.788,2.015-53.746,3.112-80.572C92.157,228.141,94.19,202.309,89.746,177.622z"/>
		<g>
			<path style="fill:#FFC999;" d="M39.246,12.28c1.401-3.815,10.551-2.598,13.631-2.342c2.82,0.235,7.396,1.804,7.173,5.48
				c-0.085,1.396-0.116,2.785-0.115,4.175c-0.09-0.276-0.271-0.524-0.604-0.7c-0.079-0.042-0.182-0.043-0.281-0.024
				c-0.013-0.17-0.022-0.325-0.032-0.443c-0.024-0.271-0.402-0.208-0.431,0.029c-0.043,0.357-0.146,0.709-0.257,1.058
				c-0.063,0.094-0.128,0.188-0.185,0.29c-0.181,0.33-0.149,0.747-0.212,1.106c-0.174,0.963,0.944,1.301,1.503,0.575
				c0.223-0.289,0.409-0.642,0.505-1c0.016,1.31,0.055,2.618,0.118,3.931c-2.075-0.077-4.368,0.279-6.234,0.404
				c-3.601,0.24-7.272-0.535-10.919-0.329c-0.477,0.026-1.166,0.04-1.926,0.089C41.346,20.524,39.736,16.331,39.246,12.28z"/>
			<path style="fill:#1B330B;" d="M40.57,26.702c1.94-0.044,3.938-0.475,5.863-0.717c2.477-0.311,4.844-0.114,7.298-0.326
				c2.196-0.27,4.399-0.228,6.604,0.113c0.127,0.091,0.287,0.123,0.457,0.1c0.775,0.272,1.152,1.063,1.125,2.387
				c-0.342,0.144-0.557,0.787-0.107,0.947c0.11,0.039,0.22,0.078,0.33,0.117c-0.299,8.866-0.908,17.731-1.318,26.582
				c-4.06-3.143-3.047-12.867-10.458-11.729c-2.834,0.435-4.887,1.725-6.749,3.888c-1.011,1.175-2.492,6.603-4.659,6.715
				c-0.423-8.761-1.019-17.535-1.294-26.311c0.495,0.059,1.002,0.053,1.387,0.022c0.02-0.002,0.03-0.033,0.01-0.043
				C35.607,26.984,40.047,26.713,40.57,26.702z"/>
			<path style="fill:#820000;" d="M38.988,55.447c2.152,0.78,4.161-3.914,4.834-5.401c1.448-3.201,5.227-4.965,8.612-4.186
				c3.324,0.766,4.015,5.299,5.07,7.92c0.762,1.889,1.396,3.174,3.262,3.281c-0.603,13.635-0.663,27.232,1.706,40.742
				c-1.21,1.387-1.813,2.856-2.298,4.868c-0.859,3.569-2.186,6.026-4.845,8.616c-3.98,3.875-8.964,1.492-11.813-2.009
				c-1.976-2.429-2.414-10.183-6.326-10.54C39.829,84.388,39.672,69.938,38.988,55.447z"/>
			<path style="fill:#17280B;" d="M13.341,176.008c4.481-24.834,16.917-47.313,22.709-71.796c0.379-1.601,0.708-3.202,1.013-4.806
				c2.576,1.646,3.671,9.004,4.944,11.058c1.855,2.992,5.3,4.62,8.686,4.96c3.333,0.335,6.024-3.033,7.689-5.403
				c2.49-3.547,2.072-7.73,4.259-11.276c0.336,1.824,0.712,3.646,1.143,5.468c5.792,24.483,18.229,46.962,22.709,71.796
				c2.266,12.559,2.964,25.3,2.999,38.072c-1.542,0.275-3.4,0.281-4.624,0.496c-3.959,0.696-7.851,1.145-11.873,1.387
				c-6.916,0.416-13.849,0.587-20.775,0.723c-7.001,0.137-14.004,0.07-21.001-0.191c-6.896-0.258-14.289,0.262-20.878-2.135
				C10.365,201.494,11.059,188.659,13.341,176.008z"/>
			<path style="fill:#17280B;" d="M87.145,327.538c-0.084,0.053-0.158,0.129-0.167,0.23c-0.495,5.39-0.156,11.204-4.689,15.021
				c-2.658,2.237-7.162,2.269-10.444,2.552c-9.25,0.801-18.396,1.667-27.692,1.943c-6.613,0.196-13.597-0.248-19.953-2.154
				c-3.542-1.063-6.657-3.028-8.918-5.962c-1.655-2.148-2.299-5.799-2.631-9.235c0.158-9.196,0.134-18.408,0.004-27.625
				c3.774,2.344,9.237,2.453,13.476,3.133c7.956,1.275,16.06,2.032,24.116,2.176c6.926,0.123,13.94-0.479,20.794-1.433
				c4.86-0.676,11.382-1.277,16.139-3.548C87.064,310.942,87.029,319.247,87.145,327.538z"/>
			<path style="fill:#820000;" d="M88.423,254.46c-0.472,15.665-1.001,31.389-1.231,47.104c-11.841,4.209-26.192,4.704-38.464,4.486
				c-6.271-0.112-12.527-0.897-18.755-1.576c-2.933-0.32-5.857-0.845-8.769-1.316c-2.838-0.461-5.854-0.324-8.556-1.363
				c-0.229-15.792-0.765-31.593-1.238-47.334c-0.395-13.104-1.081-26.344-1.074-39.553c5.055,2.687,11.266,2.717,16.854,2.898
				c8.233,0.267,16.441,0.483,24.682,0.371c7.594-0.103,15.208-0.349,22.778-0.978c4.078-0.34,7.912-1.243,11.903-2.041
				c1.06-0.211,2.021-0.164,2.942-0.283C89.505,228.093,88.818,241.344,88.423,254.46z"/>
		</g>
		<path style="fill:#4B1E0A;" d="M55.293,27.446c-4.295,0.491-8.749,0.445-12.995,1.18c-0.088,0.016-0.136,0.191-0.021,0.188
			c4.191-0.085,9.222,1.736,13.159-0.364C55.902,28.202,55.967,27.368,55.293,27.446z"/>
		<path style="fill:#4B1E0A;" d="M44.339,15.1c-0.324-0.453-0.839-0.367-1.252-0.102c-0.824,0.529-1.219,1.705-1.028,2.643
			c0.119,0.59,0.482,0.91,0.91,1.016c0.005,0.025,0.008,0.053,0.014,0.078c0.066,0.306,0.465,0.435,0.723,0.283
			c0.375-0.22,0.646-0.557,0.836-0.942c0.004-0.005,0.008-0.008,0.012-0.012c0.192-0.234,0.266-0.506,0.238-0.753
			C44.924,16.545,44.776,15.71,44.339,15.1z"/>
		<path style="fill:#4B1E0A;" d="M48.622,18.657c-0.046-0.041-0.095-0.063-0.144-0.079c0.01-0.063,0.019-0.119,0.018-0.147
			c-0.006-0.27-0.331-0.156-0.389,0.026c-0.044,0.141-0.178,0.296-0.291,0.399c0,0.001-0.001,0.002-0.001,0.002
			c-0.034,0.033-0.067,0.064-0.096,0.095c0.007-0.001,0.014-0.001,0.021-0.001c-0.15,0.195-0.248,0.494-0.013,0.664
			c0.019,0.014,0.038,0.027,0.058,0.041c0.213,0.154,0.432,0.09,0.636-0.039c0.191-0.12,0.273-0.281,0.339-0.49
			C48.813,18.96,48.749,18.77,48.622,18.657z"/>
		<path style="fill:#4B1E0A;" d="M54.725,17.727c-0.632-0.676-1.605,0.07-1.948,0.638c-0.316,0.519-0.448,1.313-0.171,1.892
			c-0.008,0.432,0.021,0.932,0.357,1.247c0.44,0.413,1.184,0.215,1.534-0.218C55.213,20.399,55.568,18.627,54.725,17.727z"/>
		<path style="fill:#4B1E0A;" d="M56.211,14.682c0.078-0.125,0.11-0.323,0.053-0.461c-0.111-0.266-0.294-0.361-0.577-0.336
			c-0.102,0.01-0.193,0.039-0.282,0.088c-0.352,0.191-0.533,0.525-0.465,0.922c0.003,0.015,0.006,0.03,0.009,0.045
			c0.081,0.468,0.577,0.43,0.924,0.18c0.002,0.012,0.003,0.023,0.005,0.033c0.061-0.057,0.12-0.114,0.179-0.174
			c-0.013,0.016,0.03-0.063,0.077-0.148c0.012-0.021,0.027-0.041,0.036-0.063C56.223,14.671,56.265,14.595,56.211,14.682z"/>
		<path style="fill:#FFFFFF;" d="M38.398,110.71c-4.5,15.097-11.637,29.172-16.567,44.114c-2.427,7.353-4.225,14.901-5.418,22.55
			c-1.193,7.654-0.314,15.321-0.266,23.025c0.007,1.002,1.399,0.92,1.69,0.117c2.463-6.797,2.333-13.92,3.214-21.032
			c0.95-7.674,2.818-15.214,4.924-22.642c4.346-15.338,9.104-30.579,12.724-46.113C38.751,110.507,38.452,110.529,38.398,110.71z"/>
		<path style="fill:#FFFFFF;" d="M17.557,205.975c-0.852-0.686-2.038,0.053-2.373,0.99c-0.006,0.016-0.009,0.032-0.015,0.049
			c-0.017,0.055-0.034,0.108-0.046,0.164c-0.135,0.584-0.007,1.287,0.323,1.824c0.116,0.507,0.262,1,0.517,1.413
			c0.007,0.16,0.104,0.254,0.235,0.3c0.333,0.209,0.819-0.077,0.907-0.453c0.1-0.19,0.193-0.385,0.264-0.592
			C18.707,209.081,18.582,206.798,17.557,205.975z"/>
	</g>
	<g>
		<path style="fill:none;" d="M51.872,218.175c7.594-0.103,15.208-0.349,22.778-0.978c2.462-0.205,4.835-0.622,7.207-1.091
			c0.004-0.355,0.004-0.697,0.006-1.048c-2.938,0.428-5.867,0.724-8.869,0.904c-6.916,0.416-13.849,0.587-20.775,0.723
			c-7.001,0.137-14.004,0.07-21.001-0.191c-6.452-0.241-13.341,0.197-19.598-1.709c0.004,0.245,0.009,0.491,0.013,0.736
			c4.797,2.071,10.437,2.116,15.558,2.282C35.424,218.071,43.632,218.288,51.872,218.175z"/>
		<path style="fill:none;" d="M48.728,306.05c-6.271-0.112-12.527-0.897-18.755-1.576c-2.933-0.32-5.857-0.845-8.769-1.316
			c-2.275-0.369-4.663-0.364-6.913-0.88c0.011,0.293,0.021,0.585,0.032,0.878c3.605,1.529,8.156,1.7,11.806,2.285
			c7.956,1.275,16.06,2.032,24.116,2.176c6.926,0.123,13.94-0.479,20.794-1.433c2.076-0.289,4.458-0.571,6.873-0.969
			c0.015-0.383,0.029-0.764,0.045-1.153C68.337,305.974,57.945,306.213,48.728,306.05z"/>
		<path style="opacity:0.8;fill:#17280B;" d="M60.822,55.905c0.41-8.851,1.02-17.716,1.318-26.582
			c-0.11-0.039-0.22-0.078-0.33-0.117c-0.449-0.16-0.234-0.803,0.107-0.947c0.027-1.323-0.35-2.115-1.125-2.387
			c-0.17,0.023-0.33-0.009-0.457-0.1c-2.206-0.341-4.408-0.383-6.604-0.113c-2.454,0.212-4.82,0.016-7.298,0.326
			c-1.925,0.242-3.923,0.673-5.863,0.717c-0.523,0.012-4.963,0.282-1.512,1.746c0.021,0.01,0.01,0.041-0.01,0.043
			c-0.385,0.03-0.892,0.036-1.387-0.022c0.096,3.044,0.236,6.088,0.388,9.132c6.732-9.449,17.956-8.232,19.131,11.625
			C58.188,51.723,58.988,54.485,60.822,55.905z"/>
		<path style="opacity:0.8;fill:#820000;" d="M62.473,97.803c-2.369-13.51-2.309-27.107-1.706-40.742
			c-1.865-0.107-2.5-1.393-3.262-3.281c-0.077-0.192-0.153-0.397-0.228-0.608c-0.006,0.884-0.023,1.789-0.064,2.733
			c-0.747,17.209-0.184,33.78,2.218,49.251c0.286-0.771,0.529-1.594,0.744-2.484C60.66,100.66,61.263,99.19,62.473,97.803z"/>
		<path style="opacity:0.8;fill:#17280B;" d="M12.356,182.258c-1.492,10.619-1.994,21.349-2.016,32.102
			c0.424,0.154,0.851,0.295,1.28,0.426C11.419,202.21,11.501,190.202,12.356,182.258z"/>
		<path style="opacity:0.8;fill:#17280B;" d="M81.863,215.059c0.999-0.145,1.999-0.306,3.004-0.482
			c1.224-0.215,3.082-0.221,4.624-0.496c-0.035-12.772-0.733-25.514-2.999-38.072c-4.48-24.834-16.917-47.313-22.709-71.796
			c-0.431-1.821-0.807-3.644-1.143-5.468c-1.642,2.663-1.815,5.684-2.853,8.524c1.896,11.335,4.789,22.068,8.925,31.993
			C77.042,159.254,82.129,178.008,81.863,215.059z"/>
		<path style="opacity:0.8;fill:#17280B;" d="M43.379,341.124c-17.333-0.194-27.85,2.1-28.309-14.926
			c-0.202-7.515-0.466-15.259-0.747-23.043c-0.582-0.247-1.146-0.522-1.67-0.848c0.13,9.217,0.154,18.429-0.004,27.625
			c0.332,3.437,0.976,7.087,2.631,9.235c2.261,2.934,5.376,4.899,8.918,5.962c6.357,1.906,13.34,2.351,19.953,2.154
			c9.297-0.276,18.442-1.143,27.692-1.943c3.282-0.283,7.786-0.314,10.444-2.552c4.533-3.817,4.194-9.632,4.689-15.021
			c0.009-0.101,0.083-0.177,0.167-0.23c-0.115-8.291-0.08-16.596,0.033-24.902c-2.725,1.301-6.026,2.046-9.266,2.579
			c-0.488,12.815-0.713,21.185-0.866,26.287C76.713,342.596,60.712,341.318,43.379,341.124z"/>
		<path style="opacity:0.8;fill:#820000;" d="M86.554,215.157c-1.582,0.316-3.139,0.643-4.696,0.95
			c-0.07,7.143-0.334,14.955-0.812,23.584c-1.579,28.549-2.511,49.399-3.089,64.371c3.187-0.634,6.288-1.451,9.234-2.498
			c0.23-15.715,0.76-31.439,1.231-47.104c0.396-13.115,1.082-26.366,1.073-39.586C88.575,214.993,87.613,214.946,86.554,215.157z"/>
		<path style="opacity:0.8;fill:#820000;" d="M11.633,215.522c-0.439-0.189-0.873-0.39-1.297-0.615
			c-0.007,13.209,0.68,26.449,1.074,39.553c0.474,15.742,1.01,31.542,1.238,47.334c0.535,0.206,1.086,0.356,1.643,0.483
			c-0.606-16.675-1.291-33.498-1.642-48.599C12.41,243.379,11.863,229.167,11.633,215.522z"/>
	</g>
	<path style="opacity:0.4;fill:#FFFFFF;" d="M67.046,159.426c5.75,23.917,5.166,38.195,2.833,83.959
		c-2.333,45.764-3.5,69.674-3.5,78.714c0,9.04-9.999,11.994-24.666,12.245s-21.717-5.365-22-13.76
		c-1-29.656-2.44-80.348-3.003-100.267c-0.563-19.919-0.979-39.596,7.003-64.467c10.994-34.258,18.299-62.923,18.299-88.923
		c0-12.552,11.823-10.444,11.823,0C53.835,89.262,56.043,113.658,67.046,159.426z"/>
	<path style="fill:#FFC999;" d="M59.941,20.486c-0.096,0.358-0.282,0.711-0.505,1c-0.559,0.726-1.677,0.388-1.503-0.575
		c0.063-0.359,0.031-0.776,0.212-1.106c0.057-0.103,0.121-0.196,0.185-0.29c0.111-0.35,0.214-0.701,0.257-1.058
		c0.028-0.237,0.406-0.301,0.431-0.029c0.01,0.118,0.02,0.273,0.032,0.443c0.1-0.02,0.202-0.018,0.281,0.024
		c0.332,0.176,0.514,0.424,0.604,0.7c-0.001-1.39,0.03-2.778,0.115-4.175c0.224-3.677-4.353-5.245-7.173-5.48
		c-0.508-0.042-1.191-0.11-1.967-0.178c5.063,3.34,4.826,12.155-3.032,14.872c1.993,0.149,3.98,0.319,5.947,0.189
		c1.866-0.125,4.159-0.482,6.234-0.404C59.996,23.104,59.957,21.795,59.941,20.486z"/>
</g>
</svg>
